# 3ds Max Wavefront OBJ Exporter v0.99 - (c)2007 guruware
# File Created: 13.01.2024 17:49:40

mtllib column.mtl

#
# object Cylinder009
#

v  12.0643 0.0000 -0.0000
v  9.2418 0.0000 -7.7548
v  9.0898 0.5840 -7.6273
v  11.8659 0.5840 -0.0000
v  2.0949 0.0000 -11.8810
v  2.0605 0.5840 -11.6857
v  -6.0321 0.0000 -10.4479
v  -5.9330 0.5840 -10.2762
v  -11.3367 0.0000 -4.1262
v  -11.1503 0.5840 -4.0584
v  -11.3367 0.0000 4.1262
v  -11.1503 0.5840 4.0584
v  -6.0321 0.0000 10.4479
v  -5.9330 0.5840 10.2762
v  2.0949 0.0000 11.8810
v  2.0605 0.5840 11.6857
v  9.2417 0.0000 7.7548
v  9.0898 0.5840 7.6273
v  10.0000 11.5506 -0.0000
v  7.6604 11.5506 -6.4279
v  7.6604 20.0000 -6.4279
v  10.0000 20.0000 -0.0000
v  1.7365 11.5506 -9.8481
v  1.7365 20.0000 -9.8481
v  -5.0000 11.5506 -8.6603
v  -5.0000 20.0000 -8.6603
v  -9.3969 11.5506 -3.4202
v  -9.3969 20.0000 -3.4202
v  -9.3969 11.5506 3.4202
v  -9.3969 20.0000 3.4202
v  -5.0000 11.5506 8.6603
v  -5.0000 20.0000 8.6603
v  1.7365 11.5506 9.8481
v  1.7365 20.0000 9.8481
v  7.6604 11.5506 6.4279
v  7.6604 20.0000 6.4279
v  7.6604 30.0000 -6.4279
v  10.0000 30.0000 -0.0000
v  1.7365 30.0000 -9.8481
v  -5.0000 30.0000 -8.6603
v  -9.3969 30.0000 -3.4202
v  -9.3969 30.0000 3.4202
v  -5.0000 30.0000 8.6603
v  1.7365 30.0000 9.8481
v  7.6604 30.0000 6.4279
v  7.9219 3.4364 -6.6472
v  10.3413 3.4364 -0.0000
v  1.7957 3.4364 -10.1842
v  -5.1706 3.4364 -8.9558
v  -9.7176 3.4364 -3.5369
v  -9.7176 3.4364 3.5369
v  -5.1706 3.4364 8.9558
v  1.7957 3.4364 10.1842
v  7.9219 3.4364 6.6472
v  8.9019 2.0460 -7.4696
v  11.6207 2.0460 -0.0000
v  2.0179 2.0460 -11.4441
v  -5.8103 2.0460 -10.0638
v  -10.9199 2.0460 -3.9745
v  -10.9199 2.0460 3.9745
v  -5.8103 2.0460 10.0638
v  2.0179 2.0460 11.4441
v  8.9019 2.0460 7.4696
v  12.0643 60.0000 -0.0000
v  11.8659 59.4160 -0.0000
v  9.0898 59.4160 -7.6273
v  9.2418 60.0000 -7.7548
v  2.0605 59.4160 -11.6857
v  2.0949 60.0000 -11.8810
v  -5.9330 59.4160 -10.2762
v  -6.0321 60.0000 -10.4479
v  -11.1503 59.4160 -4.0584
v  -11.3367 60.0000 -4.1262
v  -11.1503 59.4160 4.0584
v  -11.3367 60.0000 4.1262
v  -5.9330 59.4160 10.2762
v  -6.0321 60.0000 10.4479
v  2.0605 59.4160 11.6857
v  2.0949 60.0000 11.8810
v  9.0898 59.4160 7.6273
v  9.2417 60.0000 7.7548
v  10.0000 48.4494 -0.0000
v  10.0000 40.0000 -0.0000
v  7.6604 40.0000 -6.4279
v  7.6604 48.4494 -6.4279
v  1.7365 40.0000 -9.8481
v  1.7365 48.4494 -9.8481
v  -5.0000 40.0000 -8.6603
v  -5.0000 48.4494 -8.6603
v  -9.3969 40.0000 -3.4202
v  -9.3969 48.4494 -3.4202
v  -9.3969 40.0000 3.4202
v  -9.3969 48.4494 3.4202
v  -5.0000 40.0000 8.6603
v  -5.0000 48.4494 8.6603
v  1.7365 40.0000 9.8481
v  1.7365 48.4494 9.8481
v  7.6604 40.0000 6.4279
v  7.6604 48.4494 6.4279
v  7.9219 56.5636 -6.6472
v  10.3413 56.5636 -0.0000
v  1.7957 56.5636 -10.1842
v  -5.1706 56.5636 -8.9558
v  -9.7176 56.5636 -3.5369
v  -9.7176 56.5636 3.5369
v  -5.1706 56.5636 8.9558
v  1.7957 56.5636 10.1842
v  7.9219 56.5636 6.6472
v  11.6207 57.9540 -0.0000
v  8.9019 57.9540 -7.4696
v  2.0179 57.9540 -11.4441
v  -5.8103 57.9540 -10.0638
v  -10.9199 57.9540 -3.9745
v  -10.9199 57.9540 3.9745
v  -5.8103 57.9540 10.0638
v  2.0179 57.9540 11.4441
v  8.9019 57.9540 7.4696
# 117 vertices

vn 0.9469 0.3215 0.0000
vn 0.7254 0.3215 -0.6087
vn 0.7420 0.2486 -0.6226
vn 0.9686 0.2486 0.0000
vn 0.1644 0.3215 -0.9325
vn 0.1682 0.2486 -0.9539
vn -0.4734 0.3215 -0.8200
vn -0.4843 0.2486 -0.8388
vn -0.8898 0.3215 -0.3239
vn -0.9102 0.2486 -0.3313
vn -0.8898 0.3215 0.3239
vn -0.9102 0.2486 0.3313
vn -0.4734 0.3215 0.8200
vn -0.4843 0.2486 0.8388
vn 0.1644 0.3215 0.9325
vn 0.1682 0.2486 0.9539
vn 0.7254 0.3215 0.6087
vn 0.7420 0.2486 0.6226
vn 0.9998 0.0211 0.0000
vn 0.7659 0.0211 -0.6427
vn 0.7660 0.0000 -0.6428
vn 1.0000 -0.0000 0.0000
vn 0.1736 0.0211 -0.9846
vn 0.1736 -0.0000 -0.9848
vn -0.4999 0.0211 -0.8658
vn -0.5000 0.0000 -0.8660
vn -0.9395 0.0211 -0.3419
vn -0.9397 -0.0000 -0.3420
vn -0.9395 0.0211 0.3419
vn -0.9397 -0.0000 0.3420
vn -0.4999 0.0211 0.8658
vn -0.5000 0.0000 0.8660
vn 0.1736 0.0211 0.9846
vn 0.1736 0.0000 0.9848
vn 0.7659 0.0211 0.6426
vn 0.7660 -0.0000 0.6428
vn 1.0000 0.0000 0.0000
vn 0.1736 0.0000 -0.9848
vn -0.9397 0.0000 -0.3420
vn -0.9397 0.0000 0.3420
vn 0.7660 0.0000 0.6428
vn 0.6979 0.4123 -0.5856
vn 0.9111 0.4123 0.0000
vn 0.1582 0.4123 -0.8972
vn -0.4555 0.4123 -0.7890
vn -0.8561 0.4123 -0.3116
vn -0.8561 0.4123 0.3116
vn -0.4555 0.4123 0.7890
vn 0.1582 0.4123 0.8972
vn 0.6979 0.4123 0.5856
vn 0.6964 0.4167 -0.5843
vn 0.9091 0.4167 0.0000
vn 0.1579 0.4167 -0.8953
vn -0.4545 0.4167 -0.7873
vn -0.8542 0.4167 -0.3109
vn -0.8542 0.4167 0.3109
vn -0.4545 0.4167 0.7873
vn 0.1579 0.4167 0.8953
vn 0.6964 0.4167 0.5843
vn 0.9469 -0.3215 0.0000
vn 0.9686 -0.2486 0.0000
vn 0.7420 -0.2486 -0.6226
vn 0.7254 -0.3215 -0.6087
vn 0.1682 -0.2486 -0.9539
vn 0.1644 -0.3215 -0.9325
vn -0.4843 -0.2486 -0.8388
vn -0.4734 -0.3215 -0.8200
vn -0.9102 -0.2486 -0.3313
vn -0.8898 -0.3215 -0.3239
vn -0.9102 -0.2486 0.3313
vn -0.8898 -0.3215 0.3239
vn -0.4843 -0.2486 0.8388
vn -0.4734 -0.3215 0.8200
vn 0.1682 -0.2486 0.9539
vn 0.1644 -0.3215 0.9325
vn 0.7420 -0.2486 0.6226
vn 0.7254 -0.3215 0.6087
vn 0.9998 -0.0211 0.0000
vn 0.7660 -0.0000 -0.6428
vn 0.7659 -0.0211 -0.6427
vn 0.1736 -0.0211 -0.9846
vn -0.4999 -0.0211 -0.8658
vn -0.9395 -0.0211 -0.3419
vn -0.9395 -0.0211 0.3419
vn -0.4999 -0.0211 0.8658
vn 0.1736 -0.0211 0.9846
vn 0.7659 -0.0211 0.6426
vn 0.6979 -0.4123 -0.5856
vn 0.9111 -0.4123 0.0000
vn 0.1582 -0.4123 -0.8972
vn -0.4555 -0.4123 -0.7890
vn -0.8561 -0.4123 -0.3116
vn -0.8561 -0.4123 0.3116
vn -0.4555 -0.4123 0.7890
vn 0.1582 -0.4123 0.8972
vn 0.6979 -0.4123 0.5856
vn 0.9091 -0.4167 0.0000
vn 0.6964 -0.4167 -0.5843
vn 0.1579 -0.4167 -0.8953
vn -0.4545 -0.4167 -0.7873
vn -0.8542 -0.4167 -0.3109
vn -0.8542 -0.4167 0.3109
vn -0.4545 -0.4167 0.7873
vn 0.1579 -0.4167 0.8953
vn 0.6964 -0.4167 0.5843
# 105 vertex normals

vt 0.7784 0.0569 1.0000
vt 0.8889 0.0569 1.0000
vt 0.8889 0.1013 1.0000
vt 0.7784 0.1013 1.0000
vt 0.9993 0.0569 1.0000
vt 0.9993 0.1013 1.0000
vt 0.0021 0.0569 1.0000
vt 0.1129 0.0569 1.0000
vt 0.1129 0.1013 1.0000
vt 0.0021 0.1013 1.0000
vt 0.2240 0.0569 1.0000
vt 0.2240 0.1013 1.0000
vt 0.3350 0.0569 1.0000
vt 0.3350 0.1013 1.0000
vt 0.4458 0.0569 1.0000
vt 0.4458 0.1013 1.0000
vt 0.5568 0.0569 1.0000
vt 0.5568 0.1013 1.0000
vt 0.6677 0.0569 1.0000
vt 0.6677 0.1013 1.0000
vt 0.7773 0.3018 1.0000
vt 0.8865 0.3018 1.0000
vt 0.8865 0.4123 1.0000
vt 0.7773 0.4123 1.0000
vt 0.9955 0.3018 1.0000
vt 0.9955 0.4123 1.0000
vt 0.0021 0.3018 1.0000
vt 0.1131 0.3018 1.0000
vt 0.1131 0.4123 1.0000
vt 0.0021 0.4123 1.0000
vt 0.2240 0.3018 1.0000
vt 0.2240 0.4123 1.0000
vt 0.3350 0.3018 1.0000
vt 0.3350 0.4123 1.0000
vt 0.4461 0.3018 1.0000
vt 0.4461 0.4123 1.0000
vt 0.5572 0.3018 1.0000
vt 0.5572 0.4123 1.0000
vt 0.6676 0.3018 1.0000
vt 0.6676 0.4123 1.0000
vt 0.8865 0.5227 1.0000
vt 0.7773 0.5227 1.0000
vt 0.9955 0.5227 1.0000
vt 0.1131 0.5227 1.0000
vt 0.0021 0.5227 1.0000
vt 0.2240 0.5227 1.0000
vt 0.3350 0.5227 1.0000
vt 0.4461 0.5227 1.0000
vt 0.5572 0.5227 1.0000
vt 0.6676 0.5227 1.0000
vt 0.8865 0.1911 1.0000
vt 0.7773 0.1911 1.0000
vt 0.9955 0.1911 1.0000
vt 0.1131 0.1911 1.0000
vt 0.0021 0.1911 1.0000
vt 0.2240 0.1911 1.0000
vt 0.3350 0.1911 1.0000
vt 0.4461 0.1911 1.0000
vt 0.5572 0.1911 1.0000
vt 0.6676 0.1911 1.0000
vt 0.8889 0.1461 1.0000
vt 0.7784 0.1461 1.0000
vt 0.9993 0.1461 1.0000
vt 0.1129 0.1461 1.0000
vt 0.0021 0.1461 1.0000
vt 0.2240 0.1461 1.0000
vt 0.3350 0.1461 1.0000
vt 0.4458 0.1461 1.0000
vt 0.5568 0.1461 1.0000
vt 0.6677 0.1461 1.0000
vt 0.8889 0.1911 1.0000
vt 0.7784 0.1911 1.0000
vt 0.9993 0.1911 1.0000
vt 0.1129 0.1911 1.0000
vt 0.4458 0.1911 1.0000
vt 0.5568 0.1911 1.0000
vt 0.6677 0.1911 1.0000
vt 0.7786 0.9978 1.0000
vt 0.7786 0.9506 1.0000
vt 0.8890 0.9505 1.0000
vt 0.8890 0.9977 1.0000
vt 0.9991 0.9506 1.0000
vt 0.9991 0.9978 1.0000
vt 0.0023 0.9978 1.0000
vt 0.0023 0.9506 1.0000
vt 0.1128 0.9505 1.0000
vt 0.1128 0.9978 1.0000
vt 0.2237 0.9505 1.0000
vt 0.2237 0.9978 1.0000
vt 0.3346 0.9505 1.0000
vt 0.3346 0.9978 1.0000
vt 0.4456 0.9505 1.0000
vt 0.4456 0.9977 1.0000
vt 0.5567 0.9507 1.0000
vt 0.5567 0.9979 1.0000
vt 0.6679 0.9506 1.0000
vt 0.6679 0.9978 1.0000
vt 0.7787 0.7453 1.0000
vt 0.7787 0.6346 1.0000
vt 0.8890 0.6346 1.0000
vt 0.8890 0.7453 1.0000
vt 0.9992 0.6346 1.0000
vt 0.9992 0.7453 1.0000
vt 0.0022 0.7453 1.0000
vt 0.0022 0.6346 1.0000
vt 0.1128 0.6346 1.0000
vt 0.1128 0.7453 1.0000
vt 0.2237 0.6346 1.0000
vt 0.2237 0.7453 1.0000
vt 0.3346 0.6346 1.0000
vt 0.3346 0.7453 1.0000
vt 0.4456 0.6346 1.0000
vt 0.4456 0.7453 1.0000
vt 0.5567 0.6346 1.0000
vt 0.5567 0.7453 1.0000
vt 0.6679 0.6346 1.0000
vt 0.6679 0.7453 1.0000
vt 0.7787 0.5237 1.0000
vt 0.8890 0.5237 1.0000
vt 0.9992 0.5237 1.0000
vt 0.0022 0.5237 1.0000
vt 0.1128 0.5237 1.0000
vt 0.2237 0.5237 1.0000
vt 0.3346 0.5237 1.0000
vt 0.4456 0.5237 1.0000
vt 0.5567 0.5237 1.0000
vt 0.6679 0.5237 1.0000
vt 0.8890 0.8560 1.0000
vt 0.7787 0.8560 1.0000
vt 0.9992 0.8560 1.0000
vt 0.1128 0.8560 1.0000
vt 0.0022 0.8560 1.0000
vt 0.2237 0.8560 1.0000
vt 0.3346 0.8560 1.0000
vt 0.4456 0.8560 1.0000
vt 0.5567 0.8560 1.0000
vt 0.6679 0.8560 1.0000
vt 0.7786 0.9034 1.0000
vt 0.8890 0.9033 1.0000
vt 0.9991 0.9034 1.0000
vt 0.0023 0.9033 1.0000
vt 0.1128 0.9033 1.0000
vt 0.2237 0.9033 1.0000
vt 0.3346 0.9033 1.0000
vt 0.4456 0.9033 1.0000
vt 0.5567 0.9034 1.0000
vt 0.6679 0.9034 1.0000
vt 0.8890 0.8561 1.0000
vt 0.7786 0.8561 1.0000
vt 0.9991 0.8561 1.0000
vt 0.1128 0.8561 1.0000
vt 0.0023 0.8561 1.0000
vt 0.2237 0.8561 1.0000
vt 0.3346 0.8561 1.0000
vt 0.4456 0.8561 1.0000
vt 0.5567 0.8562 1.0000
vt 0.6679 0.8561 1.0000
# 157 texture coords

o Cylinder009
g Cylinder009
usemtl wire_213154229
s 2
f 1/1/1 2/2/2 3/3/3 4/4/4 
f 2/2/2 5/5/5 6/6/6 3/3/3 
f 5/7/5 7/8/7 8/9/8 6/10/6 
f 7/8/7 9/11/9 10/12/10 8/9/8 
f 9/11/9 11/13/11 12/14/12 10/12/10 
f 11/13/11 13/15/13 14/16/14 12/14/12 
f 13/15/13 15/17/15 16/18/16 14/16/14 
f 15/17/15 17/19/17 18/20/18 16/18/16 
f 17/19/17 1/1/1 4/4/4 18/20/18 
f 19/21/19 20/22/20 21/23/21 22/24/22 
f 20/22/20 23/25/23 24/26/24 21/23/21 
f 23/27/23 25/28/25 26/29/26 24/30/24 
f 25/28/25 27/31/27 28/32/28 26/29/26 
f 27/31/27 29/33/29 30/34/30 28/32/28 
f 29/33/29 31/35/31 32/36/32 30/34/30 
f 31/35/31 33/37/33 34/38/34 32/36/32 
f 33/37/33 35/39/35 36/40/36 34/38/34 
f 35/39/35 19/21/19 22/24/22 36/40/36 
f 22/24/22 21/23/21 37/41/21 38/42/37 
f 21/23/21 24/26/24 39/43/38 37/41/21 
f 24/30/24 26/29/26 40/44/26 39/45/38 
f 26/29/26 28/32/28 41/46/39 40/44/26 
f 28/32/28 30/34/30 42/47/40 41/46/39 
f 30/34/30 32/36/32 43/48/32 42/47/40 
f 32/36/32 34/38/34 44/49/34 43/48/32 
f 34/38/34 36/40/36 45/50/41 44/49/34 
f 36/40/36 22/24/22 38/42/37 45/50/41 
f 46/51/42 20/22/20 19/21/19 47/52/43 
f 48/53/44 23/25/23 20/22/20 46/51/42 
f 49/54/45 25/28/25 23/27/23 48/55/44 
f 50/56/46 27/31/27 25/28/25 49/54/45 
f 51/57/47 29/33/29 27/31/27 50/56/46 
f 52/58/48 31/35/31 29/33/29 51/57/47 
f 53/59/49 33/37/33 31/35/31 52/58/48 
f 54/60/50 35/39/35 33/37/33 53/59/49 
f 47/52/43 19/21/19 35/39/35 54/60/50 
f 4/4/4 3/3/3 55/61/51 56/62/52 
f 3/3/3 6/6/6 57/63/53 55/61/51 
f 6/10/6 8/9/8 58/64/54 57/65/53 
f 8/9/8 10/12/10 59/66/55 58/64/54 
f 10/12/10 12/14/12 60/67/56 59/66/55 
f 12/14/12 14/16/14 61/68/57 60/67/56 
f 14/16/14 16/18/16 62/69/58 61/68/57 
f 16/18/16 18/20/18 63/70/59 62/69/58 
f 18/20/18 4/4/4 56/62/52 63/70/59 
f 46/71/42 47/72/43 56/62/52 55/61/51 
f 48/73/44 46/71/42 55/61/51 57/63/53 
f 49/74/45 48/55/44 57/65/53 58/64/54 
f 50/56/46 49/74/45 58/64/54 59/66/55 
f 51/57/47 50/56/46 59/66/55 60/67/56 
f 52/75/48 51/57/47 60/67/56 61/68/57 
f 53/76/49 52/75/48 61/68/57 62/69/58 
f 54/77/50 53/76/49 62/69/58 63/70/59 
f 47/72/43 54/77/50 63/70/59 56/62/52 
f 64/78/60 65/79/61 66/80/62 67/81/63 
f 67/81/63 66/80/62 68/82/64 69/83/65 
f 69/84/65 68/85/64 70/86/66 71/87/67 
f 71/87/67 70/86/66 72/88/68 73/89/69 
f 73/89/69 72/88/68 74/90/70 75/91/71 
f 75/91/71 74/90/70 76/92/72 77/93/73 
f 77/93/73 76/92/72 78/94/74 79/95/75 
f 79/95/75 78/94/74 80/96/76 81/97/77 
f 81/97/77 80/96/76 65/79/61 64/78/60 
f 82/98/78 83/99/37 84/100/79 85/101/80 
f 85/101/80 84/100/79 86/102/38 87/103/81 
f 87/104/81 86/105/38 88/106/26 89/107/82 
f 89/107/82 88/106/26 90/108/39 91/109/83 
f 91/109/83 90/108/39 92/110/40 93/111/84 
f 93/111/84 92/110/40 94/112/32 95/113/85 
f 95/113/85 94/112/32 96/114/34 97/115/86 
f 97/115/86 96/114/34 98/116/41 99/117/87 
f 99/117/87 98/116/41 83/99/37 82/98/78 
f 83/99/37 38/118/37 37/119/21 84/100/79 
f 84/100/79 37/119/21 39/120/38 86/102/38 
f 86/105/38 39/121/38 40/122/26 88/106/26 
f 88/106/26 40/122/26 41/123/39 90/108/39 
f 90/108/39 41/123/39 42/124/40 92/110/40 
f 92/110/40 42/124/40 43/125/32 94/112/32 
f 94/112/32 43/125/32 44/126/34 96/114/34 
f 96/114/34 44/126/34 45/127/41 98/116/41 
f 98/116/41 45/127/41 38/118/37 83/99/37 
f 100/128/88 101/129/89 82/98/78 85/101/80 
f 102/130/90 100/128/88 85/101/80 87/103/81 
f 103/131/91 102/132/90 87/104/81 89/107/82 
f 104/133/92 103/131/91 89/107/82 91/109/83 
f 105/134/93 104/133/92 91/109/83 93/111/84 
f 106/135/94 105/134/93 93/111/84 95/113/85 
f 107/136/95 106/135/94 95/113/85 97/115/86 
f 108/137/96 107/136/95 97/115/86 99/117/87 
f 101/129/89 108/137/96 99/117/87 82/98/78 
f 65/79/61 109/138/97 110/139/98 66/80/62 
f 66/80/62 110/139/98 111/140/99 68/82/64 
f 68/85/64 111/141/99 112/142/100 70/86/66 
f 70/86/66 112/142/100 113/143/101 72/88/68 
f 72/88/68 113/143/101 114/144/102 74/90/70 
f 74/90/70 114/144/102 115/145/103 76/92/72 
f 76/92/72 115/145/103 116/146/104 78/94/74 
f 78/94/74 116/146/104 117/147/105 80/96/76 
f 80/96/76 117/147/105 109/138/97 65/79/61 
f 100/148/88 110/139/98 109/138/97 101/149/89 
f 102/150/90 111/140/99 110/139/98 100/148/88 
f 103/151/91 112/142/100 111/141/99 102/152/90 
f 104/153/92 113/143/101 112/142/100 103/151/91 
f 105/154/93 114/144/102 113/143/101 104/153/92 
f 106/155/94 115/145/103 114/144/102 105/154/93 
f 107/156/95 116/146/104 115/145/103 106/155/94 
f 108/157/96 117/147/105 116/146/104 107/156/95 
f 101/149/89 109/138/97 117/147/105 108/157/96 
# 108 polygons

