# 3ds Max Wavefront OBJ Exporter v0.99 - (c)2007 guruware
# File Created: 14.01.2024 15:38:19

mtllib roof.mtl

#
# object Roof001
#

v  -1.8690 80.0000 -65.0000
v  43.1310 70.0000 -65.0000
v  -46.8690 70.0000 -65.0000
v  -46.8690 60.0000 65.0000
v  -46.8690 60.0000 -65.0000
v  43.1310 60.0000 -65.0000
v  43.1310 60.0000 65.0000
v  43.1310 70.0000 65.0000
v  -46.8690 70.0000 65.0000
v  -1.8690 80.0000 65.0000
# 10 vertices

vn 0.0000 0.7500 -0.6614
vn 0.0000 0.0000 -1.0000
vn -0.5774 -0.5774 0.5774
vn -0.5774 -0.5774 -0.5774
vn 0.5774 -0.5774 -0.5774
vn 0.5774 -0.5774 0.5774
vn 0.6300 0.5053 0.5897
vn -0.6300 0.5053 0.5897
vn 0.6567 0.5268 -0.5396
vn -0.6567 0.5268 -0.5396
vn 0.0000 0.7500 0.6614
# 11 vertex normals

vt 0.2501 0.9369 0.0000
vt 0.4965 0.8822 0.0000
vt 0.0037 0.8822 0.0000
vt 0.5072 0.7118 0.0000
vt 0.5072 0.0000 0.0000
vt 1.0000 -0.0000 0.0000
vt 1.0000 0.7118 0.0000
vt 0.5038 0.8830 0.0000
vt 0.9965 0.8830 0.0000
vt 0.9965 0.9377 0.0000
vt 0.5038 0.9377 0.0000
vt 0.2880 0.7131 0.0000
vt 0.9998 0.7131 0.0000
vt 0.9998 0.7678 0.0000
vt 0.2880 0.7678 0.0000
vt 0.5038 0.8254 0.0000
vt 0.9965 0.8254 0.0000
vt 0.9965 0.8802 0.0000
vt 0.5038 0.8802 0.0000
vt 0.2880 0.7692 0.0000
vt 0.9998 0.7692 0.0000
vt 0.9998 0.8239 0.0000
vt 0.2880 0.8239 0.0000
vt 0.0034 0.8261 0.0000
vt 0.4962 0.8261 0.0000
vt 0.2498 0.8808 0.0000
vt 0.0000 0.7118 0.0000
vt 0.0000 0.0000 0.0000
vt 0.2524 0.0000 0.0000
vt 0.2524 0.7118 0.0000
vt 0.5048 0.0000 0.0000
vt 0.5048 0.7118 0.0000
# 32 texture coords

o Roof001
g Roof001
usemtl wire_214229166
s 16
f 1/1/1 2/2/2 3/3/2 
s 2
f 4/4/3 5/5/4 6/6/5 7/7/6 
s 8
f 4/8/3 7/9/6 8/10/7 9/11/8 
s 16
f 7/12/6 6/13/5 2/14/9 8/15/7 
s 32
f 6/16/5 5/17/4 3/18/10 2/19/9 
s 64
f 5/20/4 4/21/3 9/22/8 3/23/10 
s off
f 9/24/8 8/25/7 10/26/11 
f 8/27/7 2/28/9 1/29/1 10/30/11 
f 3/31/10 9/32/8 10/30/11 1/29/1 
# 7 polygons - 2 triangles

